<svg width="11" height="10" viewBox="0 0 11 10" fill="none" xmlns="http://www.w3.org/2000/svg">
<g clip-path="url(#clip0)">
<path d="M6.44253 5.00813L10.3363 1.11421C10.5897 0.860926 10.5897 0.451402 10.3363 0.198118C10.0831 -0.055165 9.67354 -0.055165 9.42025 0.198118L5.52632 4.09204L1.63251 0.198118C1.37911 -0.055165 0.969703 -0.055165 0.716419 0.198118C0.463017 0.451402 0.463017 0.860926 0.716419 1.11421L4.61023 5.00813L0.716419 8.90205C0.463017 9.15533 0.463017 9.56486 0.716419 9.81814C0.842646 9.94448 1.00862 10.008 1.17447 10.008C1.34032 10.008 1.50617 9.94448 1.63251 9.81814L5.52632 5.92422L9.42025 9.81814C9.5466 9.94448 9.71245 10.008 9.8783 10.008C10.0441 10.008 10.21 9.94448 10.3363 9.81814C10.5897 9.56486 10.5897 9.15533 10.3363 8.90205L6.44253 5.00813Z" fill="#2B2839"/>
</g>
<defs>
<clipPath id="clip0">
<rect width="10" height="10" fill="white" transform="translate(0.526367)"/>
</clipPath>
</defs>
</svg>
