<svg width="15" height="14" viewBox="0 0 15 14" fill="none" xmlns="http://www.w3.org/2000/svg">
<path d="M0.658892 13.1594L0.532955 13.6878C0.528901 13.7047 0.527888 13.722 0.527381 13.739C0.527381 13.7425 0.526367 13.7455 0.526367 13.7488C0.526621 13.7777 0.532955 13.8058 0.542838 13.833C0.545118 13.8393 0.547652 13.8449 0.55044 13.851C0.562856 13.8781 0.578313 13.9042 0.600105 13.926C0.624177 13.95 0.652557 13.9685 0.683218 13.9812C0.713879 13.9939 0.746566 14.0002 0.779254 14.0002C0.798765 14.0002 0.81853 13.9979 0.837788 13.9934L1.36637 13.8674L0.658892 13.1594Z" fill="#2B2839"/>
<path d="M13.8595 0.666679C12.9701 -0.222226 11.5235 -0.222226 10.6341 0.666679L1.49619 9.80456C1.49188 9.80887 1.48935 9.81419 1.48555 9.81875C1.48023 9.82483 1.47566 9.83142 1.47085 9.83801C1.45742 9.85676 1.44703 9.87678 1.43918 9.89857C1.4369 9.90516 1.4336 9.91099 1.43183 9.91757C1.43107 9.92011 1.42955 9.92264 1.42879 9.92518L0.79657 12.5807L1.94546 13.7294L4.60102 13.0972C4.60786 13.0956 4.61394 13.0918 4.62053 13.0896C4.62915 13.0868 4.63726 13.0835 4.64562 13.0797C4.66386 13.0713 4.68084 13.0609 4.69655 13.0485C4.70263 13.0437 4.70897 13.0401 4.7148 13.0348C4.71682 13.0328 4.71936 13.0318 4.72138 13.0298L13.8595 3.89162C14.7487 3.00272 14.7487 1.55584 13.8595 0.666679ZM4.87393 12.1609L4.96363 11.3543L10.6341 5.68362C10.7331 5.58454 10.7331 5.4244 10.6341 5.32532C10.535 5.22624 10.3748 5.22624 10.2758 5.32532L4.60533 10.996L3.39588 11.1303L3.53018 9.92087L9.20113 4.25043C9.30021 4.15135 9.30021 3.9912 9.20113 3.89213C9.10205 3.79305 8.94191 3.79305 8.84283 3.89213L3.17188 9.56257L2.36533 9.65227L9.38003 2.63757L11.8886 5.14617L4.87393 12.1609ZM12.2469 4.78787L9.73832 2.27928L10.0966 1.92098L12.6052 4.42957L12.2469 4.78787ZM12.9635 4.07128L10.4549 1.56268L10.8135 1.20413L13.3221 3.71272L12.9635 4.07128Z" fill="#2B2839"/>
</svg>
